<svg xmlns="http://www.w3.org/2000/svg" viewBox="0 0 150.43 256"><g id="Layer_2" data-name="Layer 2"><g id="Layer_1-2" data-name="Layer 1"><path d="M19.79,256c-7.48-2.55-12-8.68-16.91-14.25-4-4.55-3.58-11.92.21-16.66A38.55,38.55,0,0,1,6,222q45.83-45.84,91.67-91.66a19.9,19.9,0,0,1,2.54-1.86c-1.14-1.2-1.8-1.92-2.49-2.61Q51.53,79.65,5.34,33.47C-.15,28-1.82,21.2,2.28,15.7A70.07,70.07,0,0,1,15.78,2.22C20.49-1.4,26.85-.33,31.51,3.5a25.32,25.32,0,0,1,2,1.84Q89.37,61.14,145.17,117c5.57,5.57,6.79,12.07,3.28,18.08a20.14,20.14,0,0,1-3.29,4Q89.38,194.94,33.49,250.67c-2.26,2.25-5.45,3.58-8.2,5.33Z"/></g></g></svg>