<svg xmlns="http://www.w3.org/2000/svg" viewBox="0 0 278.17 278.15">
    <defs>
      <style>.Layer_1 {
        fill: #fff;
      }</style>
    </defs>
    <g class="Layer_1" data-name="Layer 1">
      <path
        d="M28.25,0h7.6C46.34,1.51,53.62,8.05,60.74,15.25,86,40.73,111.39,66,136.71,91.37a13.05,13.05,0,0,1,1.65,2.82l1.21-.48a22.43,22.43,0,0,1,1.84-2.35q40.41-40.45,80.83-80.88a34.14,34.14,0,0,1,14.56-9.1c1.8-.53,3.65-.92,5.48-1.38h7.6a11.05,11.05,0,0,0,1.51.49,31.28,31.28,0,0,1,21.85,14.66c8.18,13,6,29-5.34,40.44q-40.48,40.55-81,81a18,18,0,0,1-2.66,1.86v1.17a18.28,18.28,0,0,1,2.66,1.86q40.08,40,80.09,80.06c1.09,1.09,2.18,2.18,3.19,3.33a32.08,32.08,0,0,1-7.39,48.5c-13.14,7.94-28.87,5.82-40.22-5.51q-40.54-40.48-81-81a19.33,19.33,0,0,1-1.93-2.78c-1.33,1.26-2.06,1.92-2.75,2.61l-67.4,67.39c-5.25,5.25-10.36,10.65-15.82,15.67-16.8,15.44-44,8.64-51.65-12.86-.81-2.27-1.31-4.66-2-7v-7.6c1.54-10.59,8.18-17.91,15.44-25.09,25.42-25.14,50.62-50.52,75.93-75.77a13.05,13.05,0,0,1,2.82-1.65l-.48-1.21a23.53,23.53,0,0,1-2.35-1.84Q50.92,96.33,10.5,55.9A34.1,34.1,0,0,1,1.39,41.34C.85,39.54.46,37.68,0,35.85v-7.6a10.23,10.23,0,0,0,.49-1.51C2.34,16.54,7.79,8.8,16.9,4,20.39,2.09,24.45,1.29,28.25,0Z"/>
    </g>
</svg>
