<svg id="Layer_1" data-name="Layer 1" xmlns="http://www.w3.org/2000/svg" viewBox="0 0 256 256"><defs><style>.cls-1{fill:#fff;}</style></defs><path class="cls-1" d="M0,128V250.86A5.14,5.14,0,0,0,5.14,256H250.86a5.14,5.14,0,0,0,5.14-5.14V5.14A5.14,5.14,0,0,0,250.86,0H5.14A5.14,5.14,0,0,0,0,5.14ZM183.56,51.08V95l-1.73-2.57a54.43,54.43,0,0,0-8.36-10.07,64,64,0,0,0-91,0C71.88,93,65.69,105.89,63.71,121.51c-.28,2.16-.41,19.35-.47,65.14l-.08,57.1A5.15,5.15,0,0,1,58,248.89H12.26a5.14,5.14,0,0,1-5.14-5.14V12.25a5.14,5.14,0,0,1,5.14-5.14H178.42a5.14,5.14,0,0,1,5.14,5.14Zm65.32-32.84v6a5.14,5.14,0,0,1-5.14,5.14H197.37a5.14,5.14,0,0,1-5.14-5.14v-12a5.14,5.14,0,0,1,5.14-5.14h46.37a5.14,5.14,0,0,1,5.14,5.14Zm0,125.22V243.75a5.14,5.14,0,0,1-5.14,5.14H77a5.14,5.14,0,0,1-5.14-5.14V204.52c0-24.39.06-44.37.12-44.37a8,8,0,0,1,1.11,1.74c3.6,6.24,11.33,14.43,18.08,19.13A64.67,64.67,0,0,0,192,136.9c.25-1.57.31-16.91.28-50.58l0-43.15A5.15,5.15,0,0,1,197.35,38h46.39a5.14,5.14,0,0,1,5.14,5.14ZM134,72.38a56.39,56.39,0,0,1,47.09,37.47,36.67,36.67,0,0,1,2.5,13.67c0,2.56.13,4.17.31,4.17.41,0,.41,2.66,0,6.43a56.35,56.35,0,0,1-37.51,47A56.07,56.07,0,1,1,134,72.38Z"/><path class="cls-1" d="M123.2,79A50.33,50.33,0,0,0,88.59,98.88a52.28,52.28,0,0,0-8.79,19.91,57.31,57.31,0,0,0,0,18.39,49.76,49.76,0,0,0,25.48,34.23A46.61,46.61,0,0,0,126.45,177l4.34.16-2.48-.46a41.87,41.87,0,0,1-23.19-11.81,41.53,41.53,0,0,1,48.73-66.08,42,42,0,0,1,22.32,37.07l0,2.48.46-2a45.56,45.56,0,0,0,.5-8c.06-5.16,0-6.52-.65-9.52a49.85,49.85,0,0,0-39-39.05A73.54,73.54,0,0,0,123.2,79Z"/></svg>